  0
SECTION
  2
HEADER
  9
$ACADVER
  1
AC1009
  9
$FILLMODE
 70
0
  9
$EXTMIN
 10
-0.2512
 20
-3.5150
 30
0.0000
  9
$EXTMAX
 10
68.9610
 20
82.3116
 30
0.0000
  0
ENDSEC
  0
SECTION
  2
TABLES
  0
TABLE
  2
LTYPE
 70
1
  0
LTYPE
  2
CONTINUOUS
 70
64
  3
Solid line
 72
65
 73
0
 40
0
  0
ENDTAB
  0
TABLE
  2
LAYER
 70
255
  0
LAYER
  2
31
 70
64
 62
253
  6
CONTINUOUS
  0
ENDTAB
  0
ENDSEC
  0
SECTION
  2
BLOCKS
  0
BLOCK
  8
0
  2
RECT
 70
64
 10
0.0000
 20
0.0000
 30
0.0000
  3
RECT
  0
SOLID
  8
0
 10
-0.5000
 20
-0.5000
 30
0.0000
 11
0.5000
 21
-0.5000
 31
0.0000
 12
-0.5000
 22
0.5000
 32
0.0000
 13
0.5000
 23
0.5000
 33
0.0000
  0
ENDBLK
  8
0
  0
BLOCK
  8
0
  2
PIE
 70
64
 10
0.0000
 20
0.0000
 30
0.0000
  3
PIE
  0
CIRCLE
  8
0
 10
0.0000
 20
0.0000
 30
0.0000
 40
0.5000
  0
ENDBLK
  8
0
  0
BLOCK
  8
0
  2
OCTAGONP
 70
64
 10
0.0000
 20
0.0000
 30
0.0000
  3
OCTAGONP
  0
POLYLINE
  8
0
 66
1
 10
0.0000
 20
0.0000
 30
0.0000
 40
0.0000
 41
0.0000
 70
1
  0
VERTEX
  8
0
 10
-0.5000
 20
-0.2071
 30
0.0000
  0
VERTEX
  8
0
 10
-0.5000
 20
0.2071
 30
0.0000
  0
VERTEX
  8
0
 10
-0.2071
 20
0.5000
 30
0.0000
  0
VERTEX
  8
0
 10
0.2071
 20
0.5000
 30
0.0000
  0
VERTEX
  8
0
 10
0.5000
 20
0.2071
 30
0.0000
  0
VERTEX
  8
0
 10
0.5000
 20
-0.2071
 30
0.0000
  0
VERTEX
  8
0
 10
0.2071
 20
-0.5000
 30
0.0000
  0
VERTEX
  8
0
 10
-0.2071
 20
-0.5000
 30
0.0000
  0
SEQEND
  8
0
  0
ENDBLK
  8
0
  0
BLOCK
  8
0
  2
SQUAREP
 70
64
 10
0.0000
 20
0.0000
 30
0.0000
  3
SQUAREP
  0
SOLID
  8
0
 10
-0.5000
 20
-0.5000
 30
0.0000
 11
0.5000
 21
-0.5000
 31
0.0000
 12
-0.5000
 22
0.5000
 32
0.0000
 13
0.5000
 23
0.5000
 33
0.0000
  0
ENDBLK
  8
0
  0
BLOCK
  8
0
  2
ROUNDP
 70
64
 10
0.0000
 20
0.0000
 30
0.0000
  3
ROUNDP
  0
CIRCLE
  8
0
 10
0.0000
 20
0.0000
 30
0.0000
 40
0.5000
  0
ENDBLK
  8
0
  0
BLOCK
  8
0
  2
ANNULUSP
 70
64
 10
0.0000
 20
0.0000
 30
0.0000
  3
ANNULUSP
  0
CIRCLE
  8
0
 10
0.0000
 20
0.0000
 30
0.0000
 40
0.5000
  0
ENDBLK
  8
0
  0
BLOCK
  8
0
  2
THERMALP
 70
64
 10
0.0000
 20
0.0000
 30
0.0000
  3
THERMALP
  0
LINE
  8
0
 10
-0.2379
 20
0.4500
 30
0.0000
 11
0.2379
 21
0.4500
 31
0.0000
  0
LINE
  8
0
 10
0.4500
 20
0.2379
 30
0.0000
 11
0.4500
 21
-0.2379
 31
0.0000
  0
LINE
  8
0
 10
0.2379
 20
-0.4500
 30
0.0000
 11
-0.2379
 21
-0.4500
 31
0.0000
  0
LINE
  8
0
 10
-0.4500
 20
-0.2379
 30
0.0000
 11
-0.4500
 21
0.2379
 31
0.0000
  0
ENDBLK
  8
0
  0
BLOCK
  8
0
  2
OCTAGONV
 70
64
 10
0.0000
 20
0.0000
 30
0.0000
  3
OCTAGONV
  0
POLYLINE
  8
0
 66
1
 10
0.0000
 20
0.0000
 30
0.0000
 40
0.0000
 41
0.0000
 70
1
  0
VERTEX
  8
0
 10
-0.5000
 20
-0.2071
 30
0.0000
  0
VERTEX
  8
0
 10
-0.5000
 20
0.2071
 30
0.0000
  0
VERTEX
  8
0
 10
-0.2071
 20
0.5000
 30
0.0000
  0
VERTEX
  8
0
 10
0.2071
 20
0.5000
 30
0.0000
  0
VERTEX
  8
0
 10
0.5000
 20
0.2071
 30
0.0000
  0
VERTEX
  8
0
 10
0.5000
 20
-0.2071
 30
0.0000
  0
VERTEX
  8
0
 10
0.2071
 20
-0.5000
 30
0.0000
  0
VERTEX
  8
0
 10
-0.2071
 20
-0.5000
 30
0.0000
  0
SEQEND
  8
0
  0
ENDBLK
  8
0
  0
BLOCK
  8
0
  2
SQUAREV
 70
64
 10
0.0000
 20
0.0000
 30
0.0000
  3
SQUAREV
  0
SOLID
  8
0
 10
-0.5000
 20
-0.5000
 30
0.0000
 11
0.5000
 21
-0.5000
 31
0.0000
 12
-0.5000
 22
0.5000
 32
0.0000
 13
0.5000
 23
0.5000
 33
0.0000
  0
ENDBLK
  8
0
  0
BLOCK
  8
0
  2
ROUNDV
 70
64
 10
0.0000
 20
0.0000
 30
0.0000
  3
ROUNDV
  0
CIRCLE
  8
0
 10
0.0000
 20
0.0000
 30
0.0000
 40
0.5000
  0
ENDBLK
  8
0
  0
BLOCK
  8
0
  2
ANNULUSV
 70
64
 10
0.0000
 20
0.0000
 30
0.0000
  3
ANNULUSV
  0
CIRCLE
  8
0
 10
0.0000
 20
0.0000
 30
0.0000
 40
0.5000
  0
ENDBLK
  8
0
  0
BLOCK
  8
0
  2
THERMALV
 70
64
 10
0.0000
 20
0.0000
 30
0.0000
  3
THERMALV
  0
LINE
  8
0
 10
-0.2379
 20
0.4500
 30
0.0000
 11
0.2379
 21
0.4500
 31
0.0000
  0
LINE
  8
0
 10
0.4500
 20
0.2379
 30
0.0000
 11
0.4500
 21
-0.2379
 31
0.0000
  0
LINE
  8
0
 10
0.2379
 20
-0.4500
 30
0.0000
 11
-0.2379
 21
-0.4500
 31
0.0000
  0
LINE
  8
0
 10
-0.4500
 20
-0.2379
 30
0.0000
 11
-0.4500
 21
0.2379
 31
0.0000
  0
ENDBLK
  8
0
  0
ENDSEC
  0
SECTION
  2
ENTITIES
  0
INSERT
  8
31
  2
RECT
 10
34.2900
 20
19.1640
 30
0.0000
 41
3.5560
 42
1.4000
 43
1.0000
 50
90.0000
  0
INSERT
  8
31
  2
RECT
 10
34.2900
 20
13.8560
 30
0.0000
 41
3.5560
 42
1.4000
 43
1.0000
 50
90.0000
  0
INSERT
  8
31
  2
RECT
 10
22.7563
 20
30.4800
 30
0.0000
 41
1.3000
 42
1.8000
 43
1.0000
 50
0.0000
  0
INSERT
  8
31
  2
RECT
 10
26.4563
 20
30.4800
 30
0.0000
 41
1.3000
 42
1.8000
 43
1.0000
 50
0.0000
  0
INSERT
  8
31
  2
RECT
 10
19.8438
 20
32.8800
 30
0.0000
 41
0.6500
 42
1.0000
 43
1.0000
 50
90.0000
  0
INSERT
  8
31
  2
RECT
 10
19.8438
 20
34.4300
 30
0.0000
 41
0.6500
 42
1.0000
 43
1.0000
 50
90.0000
  0
INSERT
  8
31
  2
RECT
 10
26.5113
 20
34.9550
 30
0.0000
 41
1.2000
 42
1.4000
 43
1.0000
 50
270.0000
  0
INSERT
  8
31
  2
RECT
 10
26.5113
 20
32.3550
 30
0.0000
 41
1.2000
 42
1.4000
 43
1.0000
 50
270.0000
  0
INSERT
  8
31
  2
RECT
 10
21.2725
 20
72.6887
 30
0.0000
 41
0.6500
 42
1.0000
 43
1.0000
 50
270.0000
  0
INSERT
  8
31
  2
RECT
 10
21.2725
 20
71.1388
 30
0.0000
 41
0.6500
 42
1.0000
 43
1.0000
 50
270.0000
  0
INSERT
  8
31
  2
RECT
 10
4.4450
 20
73.5200
 30
0.0000
 41
0.6500
 42
1.0000
 43
1.0000
 50
90.0000
  0
INSERT
  8
31
  2
RECT
 10
4.4450
 20
75.0700
 30
0.0000
 41
0.6500
 42
1.0000
 43
1.0000
 50
90.0000
  0
INSERT
  8
31
  2
RECT
 10
4.4450
 20
72.5300
 30
0.0000
 41
0.6500
 42
1.0000
 43
1.0000
 50
270.0000
  0
INSERT
  8
31
  2
RECT
 10
4.4450
 20
70.9800
 30
0.0000
 41
0.6500
 42
1.0000
 43
1.0000
 50
270.0000
  0
INSERT
  8
31
  2
RECT
 10
25.8950
 20
53.3400
 30
0.0000
 41
0.6500
 42
1.0000
 43
1.0000
 50
0.0000
  0
INSERT
  8
31
  2
RECT
 10
27.4450
 20
53.3400
 30
0.0000
 41
0.6500
 42
1.0000
 43
1.0000
 50
0.0000
  0
INSERT
  8
31
  2
RECT
 10
39.2300
 20
25.6540
 30
0.0000
 41
0.6500
 42
1.0000
 43
1.0000
 50
0.0000
  0
INSERT
  8
31
  2
RECT
 10
40.7800
 20
25.6540
 30
0.0000
 41
0.6500
 42
1.0000
 43
1.0000
 50
0.0000
  0
INSERT
  8
31
  2
RECT
 10
20.3200
 20
45.8600
 30
0.0000
 41
0.6500
 42
1.0000
 43
1.0000
 50
270.0000
  0
INSERT
  8
31
  2
RECT
 10
20.3200
 20
44.3100
 30
0.0000
 41
0.6500
 42
1.0000
 43
1.0000
 50
270.0000
  0
INSERT
  8
31
  2
RECT
 10
16.5100
 20
45.8600
 30
0.0000
 41
0.6500
 42
1.0000
 43
1.0000
 50
270.0000
  0
INSERT
  8
31
  2
RECT
 10
16.5100
 20
44.3100
 30
0.0000
 41
0.6500
 42
1.0000
 43
1.0000
 50
270.0000
  0
INSERT
  8
31
  2
RECT
 10
21.2725
 20
73.5200
 30
0.0000
 41
0.6500
 42
1.0000
 43
1.0000
 50
90.0000
  0
INSERT
  8
31
  2
RECT
 10
21.2725
 20
75.0700
 30
0.0000
 41
0.6500
 42
1.0000
 43
1.0000
 50
90.0000
  0
INSERT
  8
31
  2
RECT
 10
12.8588
 20
51.5750
 30
0.0000
 41
0.6500
 42
1.0000
 43
1.0000
 50
270.0000
  0
INSERT
  8
31
  2
RECT
 10
12.8588
 20
50.0250
 30
0.0000
 41
0.6500
 42
1.0000
 43
1.0000
 50
270.0000
  0
INSERT
  8
31
  2
RECT
 10
11.4300
 20
51.5750
 30
0.0000
 41
0.6500
 42
1.0000
 43
1.0000
 50
270.0000
  0
INSERT
  8
31
  2
RECT
 10
11.4300
 20
50.0250
 30
0.0000
 41
0.6500
 42
1.0000
 43
1.0000
 50
270.0000
  0
INSERT
  8
31
  2
RECT
 10
25.8950
 20
54.6100
 30
0.0000
 41
0.6500
 42
1.0000
 43
1.0000
 50
0.0000
  0
INSERT
  8
31
  2
RECT
 10
27.4450
 20
54.6100
 30
0.0000
 41
0.6500
 42
1.0000
 43
1.0000
 50
0.0000
  0
INSERT
  8
31
  2
RECT
 10
20.9550
 20
11.9510
 30
0.0000
 41
3.5560
 42
1.4000
 43
1.0000
 50
270.0000
  0
INSERT
  8
31
  2
RECT
 10
20.9550
 20
17.2590
 30
0.0000
 41
3.5560
 42
1.4000
 43
1.0000
 50
270.0000
  0
INSERT
  8
31
  2
RECT
 10
16.5100
 20
16.0150
 30
0.0000
 41
0.6500
 42
1.0000
 43
1.0000
 50
270.0000
  0
INSERT
  8
31
  2
RECT
 10
16.5100
 20
14.4650
 30
0.0000
 41
0.6500
 42
1.0000
 43
1.0000
 50
270.0000
  0
INSERT
  8
31
  2
RECT
 10
49.5300
 20
11.9510
 30
0.0000
 41
3.5560
 42
1.4000
 43
1.0000
 50
270.0000
  0
INSERT
  8
31
  2
RECT
 10
49.5300
 20
17.2590
 30
0.0000
 41
3.5560
 42
1.4000
 43
1.0000
 50
270.0000
  0
INSERT
  8
31
  2
RECT
 10
29.8450
 20
16.0150
 30
0.0000
 41
0.6500
 42
1.0000
 43
1.0000
 50
270.0000
  0
INSERT
  8
31
  2
RECT
 10
29.8450
 20
14.4650
 30
0.0000
 41
0.6500
 42
1.0000
 43
1.0000
 50
270.0000
  0
INSERT
  8
31
  2
RECT
 10
35.0650
 20
53.3400
 30
0.0000
 41
0.6500
 42
1.0000
 43
1.0000
 50
180.0000
  0
INSERT
  8
31
  2
RECT
 10
33.5150
 20
53.3400
 30
0.0000
 41
0.6500
 42
1.0000
 43
1.0000
 50
180.0000
  0
INSERT
  8
31
  2
RECT
 10
45.0850
 20
16.0150
 30
0.0000
 41
0.6500
 42
1.0000
 43
1.0000
 50
270.0000
  0
INSERT
  8
31
  2
RECT
 10
45.0850
 20
14.4650
 30
0.0000
 41
0.6500
 42
1.0000
 43
1.0000
 50
270.0000
  0
INSERT
  8
31
  2
RECT
 10
38.1000
 20
48.4000
 30
0.0000
 41
0.6500
 42
1.0000
 43
1.0000
 50
270.0000
  0
INSERT
  8
31
  2
RECT
 10
38.1000
 20
46.8500
 30
0.0000
 41
0.6500
 42
1.0000
 43
1.0000
 50
270.0000
  0
INSERT
  8
31
  2
RECT
 10
58.4200
 20
16.0150
 30
0.0000
 41
0.6500
 42
1.0000
 43
1.0000
 50
270.0000
  0
INSERT
  8
31
  2
RECT
 10
58.4200
 20
14.4650
 30
0.0000
 41
0.6500
 42
1.0000
 43
1.0000
 50
270.0000
  0
INSERT
  8
31
  2
RECT
 10
12.5600
 20
18.4150
 30
0.0000
 41
0.6500
 42
1.0000
 43
1.0000
 50
0.0000
  0
INSERT
  8
31
  2
RECT
 10
14.1100
 20
18.4150
 30
0.0000
 41
0.6500
 42
1.0000
 43
1.0000
 50
0.0000
  0
INSERT
  8
31
  2
RECT
 10
25.8950
 20
18.4150
 30
0.0000
 41
0.6500
 42
1.0000
 43
1.0000
 50
0.0000
  0
INSERT
  8
31
  2
RECT
 10
27.4450
 20
18.4150
 30
0.0000
 41
0.6500
 42
1.0000
 43
1.0000
 50
0.0000
  0
INSERT
  8
31
  2
RECT
 10
41.1350
 20
18.4150
 30
0.0000
 41
0.6500
 42
1.0000
 43
1.0000
 50
0.0000
  0
INSERT
  8
31
  2
RECT
 10
42.6850
 20
18.4150
 30
0.0000
 41
0.6500
 42
1.0000
 43
1.0000
 50
0.0000
  0
INSERT
  8
31
  2
RECT
 10
54.4700
 20
18.4150
 30
0.0000
 41
0.6500
 42
1.0000
 43
1.0000
 50
0.0000
  0
INSERT
  8
31
  2
RECT
 10
56.0200
 20
18.4150
 30
0.0000
 41
0.6500
 42
1.0000
 43
1.0000
 50
0.0000
  0
INSERT
  8
31
  2
RECT
 10
28.0800
 20
11.4300
 30
0.0000
 41
0.6500
 42
1.0000
 43
1.0000
 50
180.0000
  0
INSERT
  8
31
  2
RECT
 10
26.5300
 20
11.4300
 30
0.0000
 41
0.6500
 42
1.0000
 43
1.0000
 50
180.0000
  0
INSERT
  8
31
  2
RECT
 10
14.7450
 20
11.4300
 30
0.0000
 41
0.6500
 42
1.0000
 43
1.0000
 50
180.0000
  0
INSERT
  8
31
  2
RECT
 10
13.1950
 20
11.4300
 30
0.0000
 41
0.6500
 42
1.0000
 43
1.0000
 50
180.0000
  0
INSERT
  8
31
  2
RECT
 10
43.3200
 20
11.4300
 30
0.0000
 41
0.6500
 42
1.0000
 43
1.0000
 50
180.0000
  0
INSERT
  8
31
  2
RECT
 10
41.7700
 20
11.4300
 30
0.0000
 41
0.6500
 42
1.0000
 43
1.0000
 50
180.0000
  0
INSERT
  8
31
  2
RECT
 10
56.6550
 20
11.4300
 30
0.0000
 41
0.6500
 42
1.0000
 43
1.0000
 50
180.0000
  0
INSERT
  8
31
  2
RECT
 10
55.1050
 20
11.4300
 30
0.0000
 41
0.6500
 42
1.0000
 43
1.0000
 50
180.0000
  0
INSERT
  8
31
  2
RECT
 10
30.4800
 20
50.3050
 30
0.0000
 41
0.6500
 42
1.0000
 43
1.0000
 50
270.0000
  0
INSERT
  8
31
  2
RECT
 10
30.4800
 20
48.7550
 30
0.0000
 41
0.6500
 42
1.0000
 43
1.0000
 50
270.0000
  0
INSERT
  8
31
  2
RECT
 10
38.1000
 20
52.2100
 30
0.0000
 41
0.6500
 42
1.0000
 43
1.0000
 50
270.0000
  0
INSERT
  8
31
  2
RECT
 10
38.1000
 20
50.6600
 30
0.0000
 41
0.6500
 42
1.0000
 43
1.0000
 50
270.0000
  0
INSERT
  8
31
  2
RECT
 10
4.4450
 20
19.1640
 30
0.0000
 41
3.5560
 42
1.4000
 43
1.0000
 50
90.0000
  0
INSERT
  8
31
  2
RECT
 10
4.4450
 20
13.8560
 30
0.0000
 41
3.5560
 42
1.4000
 43
1.0000
 50
90.0000
  0
INSERT
  8
31
  2
RECT
 10
49.6700
 20
66.6750
 30
0.0000
 41
0.6500
 42
1.0000
 43
1.0000
 50
180.0000
  0
INSERT
  8
31
  2
RECT
 10
48.1200
 20
66.6750
 30
0.0000
 41
0.6500
 42
1.0000
 43
1.0000
 50
180.0000
  0
INSERT
  8
31
  2
RECT
 10
51.2950
 20
66.6750
 30
0.0000
 41
0.6500
 42
1.0000
 43
1.0000
 50
0.0000
  0
INSERT
  8
31
  2
RECT
 10
52.8450
 20
66.6750
 30
0.0000
 41
0.6500
 42
1.0000
 43
1.0000
 50
0.0000
  0
INSERT
  8
31
  2
RECT
 10
51.2950
 20
64.7700
 30
0.0000
 41
0.6500
 42
1.0000
 43
1.0000
 50
0.0000
  0
INSERT
  8
31
  2
RECT
 10
52.8450
 20
64.7700
 30
0.0000
 41
0.6500
 42
1.0000
 43
1.0000
 50
0.0000
  0
INSERT
  8
31
  2
RECT
 10
64.1350
 20
19.1640
 30
0.0000
 41
3.5560
 42
1.4000
 43
1.0000
 50
90.0000
  0
INSERT
  8
31
  2
RECT
 10
64.1350
 20
13.8560
 30
0.0000
 41
3.5560
 42
1.4000
 43
1.0000
 50
90.0000
  0
INSERT
  8
31
  2
RECT
 10
48.2600
 20
38.8490
 30
0.0000
 41
3.5560
 42
1.4000
 43
1.0000
 50
90.0000
  0
INSERT
  8
31
  2
RECT
 10
48.2600
 20
33.5410
 30
0.0000
 41
3.5560
 42
1.4000
 43
1.0000
 50
90.0000
  0
INSERT
  8
31
  2
RECT
 10
31.6100
 20
37.4650
 30
0.0000
 41
0.6500
 42
1.0000
 43
1.0000
 50
0.0000
  0
INSERT
  8
31
  2
RECT
 10
33.1600
 20
37.4650
 30
0.0000
 41
0.6500
 42
1.0000
 43
1.0000
 50
0.0000
  0
INSERT
  8
31
  2
RECT
 10
38.1000
 20
34.8700
 30
0.0000
 41
1.3000
 42
1.8000
 43
1.0000
 50
270.0000
  0
INSERT
  8
31
  2
RECT
 10
38.1000
 20
31.1700
 30
0.0000
 41
1.3000
 42
1.8000
 43
1.0000
 50
270.0000
  0
INSERT
  8
31
  2
RECT
 10
35.7900
 20
10.7950
 30
0.0000
 41
1.3000
 42
1.8000
 43
1.0000
 50
180.0000
  0
INSERT
  8
31
  2
RECT
 10
32.7900
 20
10.7950
 30
0.0000
 41
1.3000
 42
1.8000
 43
1.0000
 50
180.0000
  0
INSERT
  8
31
  2
RECT
 10
56.2850
 20
61.5950
 30
0.0000
 41
1.3000
 42
1.8000
 43
1.0000
 50
0.0000
  0
INSERT
  8
31
  2
RECT
 10
59.2850
 20
61.5950
 30
0.0000
 41
1.3000
 42
1.8000
 43
1.0000
 50
0.0000
  0
INSERT
  8
31
  2
RECT
 10
56.2850
 20
56.5150
 30
0.0000
 41
1.3000
 42
1.8000
 43
1.0000
 50
0.0000
  0
INSERT
  8
31
  2
RECT
 10
59.2850
 20
56.5150
 30
0.0000
 41
1.3000
 42
1.8000
 43
1.0000
 50
0.0000
  0
INSERT
  8
31
  2
RECT
 10
63.9050
 20
41.9100
 30
0.0000
 41
1.3000
 42
1.8000
 43
1.0000
 50
0.0000
  0
INSERT
  8
31
  2
RECT
 10
66.9050
 20
41.9100
 30
0.0000
 41
1.3000
 42
1.8000
 43
1.0000
 50
0.0000
  0
INSERT
  8
31
  2
RECT
 10
41.9100
 20
34.8500
 30
0.0000
 41
1.6000
 42
4.8000
 43
1.0000
 50
270.0000
  0
INSERT
  8
31
  2
RECT
 10
41.9100
 20
28.6500
 30
0.0000
 41
1.6000
 42
4.8000
 43
1.0000
 50
270.0000
  0
INSERT
  8
31
  2
RECT
 10
57.1750
 20
48.4700
 30
0.0000
 41
1.4500
 42
1.4500
 43
1.0000
 50
270.0000
  0
INSERT
  8
31
  2
RECT
 10
4.4450
 20
41.9100
 30
0.0000
 41
1.6000
 42
1.5000
 43
1.0000
 50
270.0000
  0
INSERT
  8
31
  2
RECT
 10
24.0563
 20
38.1000
 30
0.0000
 41
0.9800
 42
3.7000
 43
1.0000
 50
0.0000
  0
INSERT
  8
31
  2
RECT
 10
26.4262
 20
38.1000
 30
0.0000
 41
0.9800
 42
3.7000
 43
1.0000
 50
0.0000
  0
INSERT
  8
31
  2
RECT
 10
38.5300
 20
39.3700
 30
0.0000
 41
1.4300
 42
5.2400
 43
1.0000
 50
0.0000
  0
INSERT
  8
31
  2
RECT
 10
42.7500
 20
39.3700
 30
0.0000
 41
1.4300
 42
5.2400
 43
1.0000
 50
0.0000
  0
INSERT
  8
31
  2
RECT
 10
57.1500
 20
75.0700
 30
0.0000
 41
0.8000
 42
0.8000
 43
1.0000
 50
270.0000
  0
INSERT
  8
31
  2
RECT
 10
57.1500
 20
73.5200
 30
0.0000
 41
0.8000
 42
0.8000
 43
1.0000
 50
270.0000
  0
INSERT
  8
31
  2
RECT
 10
55.2450
 20
75.0700
 30
0.0000
 41
0.8000
 42
0.8000
 43
1.0000
 50
270.0000
  0
INSERT
  8
31
  2
RECT
 10
55.2450
 20
73.5200
 30
0.0000
 41
0.8000
 42
0.8000
 43
1.0000
 50
270.0000
  0
INSERT
  8
31
  2
RECT
 10
51.4350
 20
75.0700
 30
0.0000
 41
0.8000
 42
0.8000
 43
1.0000
 50
270.0000
  0
INSERT
  8
31
  2
RECT
 10
51.4350
 20
73.5200
 30
0.0000
 41
0.8000
 42
0.8000
 43
1.0000
 50
270.0000
  0
INSERT
  8
31
  2
RECT
 10
53.3400
 20
75.0700
 30
0.0000
 41
0.8000
 42
0.8000
 43
1.0000
 50
270.0000
  0
INSERT
  8
31
  2
RECT
 10
53.3400
 20
73.5200
 30
0.0000
 41
0.8000
 42
0.8000
 43
1.0000
 50
270.0000
  0
INSERT
  8
31
  2
RECT
 10
49.5300
 20
75.0700
 30
0.0000
 41
0.8000
 42
0.8000
 43
1.0000
 50
270.0000
  0
INSERT
  8
31
  2
RECT
 10
49.5300
 20
73.5200
 30
0.0000
 41
0.8000
 42
0.8000
 43
1.0000
 50
270.0000
  0
INSERT
  8
31
  2
RECT
 10
47.6250
 20
75.0700
 30
0.0000
 41
0.8000
 42
0.8000
 43
1.0000
 50
270.0000
  0
INSERT
  8
31
  2
RECT
 10
47.6250
 20
73.5200
 30
0.0000
 41
0.8000
 42
0.8000
 43
1.0000
 50
270.0000
  0
INSERT
  8
31
  2
RECT
 10
45.7200
 20
75.0700
 30
0.0000
 41
0.8000
 42
0.8000
 43
1.0000
 50
270.0000
  0
INSERT
  8
31
  2
RECT
 10
45.7200
 20
73.5200
 30
0.0000
 41
0.8000
 42
0.8000
 43
1.0000
 50
270.0000
  0
INSERT
  8
31
  2
RECT
 10
43.8150
 20
75.0700
 30
0.0000
 41
0.8000
 42
0.8000
 43
1.0000
 50
270.0000
  0
INSERT
  8
31
  2
RECT
 10
43.8150
 20
73.5200
 30
0.0000
 41
0.8000
 42
0.8000
 43
1.0000
 50
270.0000
  0
INSERT
  8
31
  2
RECT
 10
58.7000
 20
59.7050
 30
0.0000
 41
0.4200
 42
0.4200
 43
1.0000
 50
270.0000
  0
INSERT
  8
31
  2
RECT
 10
58.7000
 20
59.0550
 30
0.0000
 41
0.4200
 42
0.4200
 43
1.0000
 50
270.0000
  0
INSERT
  8
31
  2
RECT
 10
58.7000
 20
58.4050
 30
0.0000
 41
0.4200
 42
0.4200
 43
1.0000
 50
270.0000
  0
INSERT
  8
31
  2
RECT
 10
56.8700
 20
59.7050
 30
0.0000
 41
0.4200
 42
0.4200
 43
1.0000
 50
270.0000
  0
INSERT
  8
31
  2
RECT
 10
56.8700
 20
59.0550
 30
0.0000
 41
0.4200
 42
0.4200
 43
1.0000
 50
270.0000
  0
INSERT
  8
31
  2
RECT
 10
56.8700
 20
58.4050
 30
0.0000
 41
0.4200
 42
0.4200
 43
1.0000
 50
270.0000
  0
INSERT
  8
31
  2
RECT
 10
57.7850
 20
58.5550
 30
0.0000
 41
0.4000
 42
0.6000
 43
1.0000
 50
270.0000
  0
INSERT
  8
31
  2
RECT
 10
57.7850
 20
59.5550
 30
0.0000
 41
0.4000
 42
0.6000
 43
1.0000
 50
270.0000
  0
INSERT
  8
31
  2
RECT
 10
60.9750
 20
47.3450
 30
0.0000
 41
0.4200
 42
0.4200
 43
1.0000
 50
180.0000
  0
INSERT
  8
31
  2
RECT
 10
60.3250
 20
47.3450
 30
0.0000
 41
0.4200
 42
0.4200
 43
1.0000
 50
180.0000
  0
INSERT
  8
31
  2
RECT
 10
59.6750
 20
47.3450
 30
0.0000
 41
0.4200
 42
0.4200
 43
1.0000
 50
180.0000
  0
INSERT
  8
31
  2
RECT
 10
60.9750
 20
49.1750
 30
0.0000
 41
0.4200
 42
0.4200
 43
1.0000
 50
180.0000
  0
INSERT
  8
31
  2
RECT
 10
60.3250
 20
49.1750
 30
0.0000
 41
0.4200
 42
0.4200
 43
1.0000
 50
180.0000
  0
INSERT
  8
31
  2
RECT
 10
59.6750
 20
49.1750
 30
0.0000
 41
0.4200
 42
0.4200
 43
1.0000
 50
180.0000
  0
INSERT
  8
31
  2
RECT
 10
59.8250
 20
48.2600
 30
0.0000
 41
0.4000
 42
0.6000
 43
1.0000
 50
180.0000
  0
INSERT
  8
31
  2
RECT
 10
60.8250
 20
48.2600
 30
0.0000
 41
0.4000
 42
0.6000
 43
1.0000
 50
180.0000
  0
INSERT
  8
31
  2
RECT
 10
35.4965
 20
22.6060
 30
0.0000
 41
2.2860
 42
1.0160
 43
1.0000
 50
180.0000
  0
INSERT
  8
31
  2
RECT
 10
33.5915
 20
22.6060
 30
0.0000
 41
0.7620
 42
1.0160
 43
1.0000
 50
180.0000
  0
INSERT
  8
31
  2
RECT
 10
35.4965
 20
24.3840
 30
0.0000
 41
2.2860
 42
1.0160
 43
1.0000
 50
180.0000
  0
INSERT
  8
31
  2
RECT
 10
33.5915
 20
24.3840
 30
0.0000
 41
0.7620
 42
1.0160
 43
1.0000
 50
180.0000
  0
INSERT
  8
31
  2
RECT
 10
30.4800
 20
19.5450
 30
0.0000
 41
0.6500
 42
1.0000
 43
1.0000
 50
90.0000
  0
INSERT
  8
31
  2
RECT
 10
30.4800
 20
21.0950
 30
0.0000
 41
0.6500
 42
1.0000
 43
1.0000
 50
90.0000
  0
INSERT
  8
31
  2
RECT
 10
41.2750
 20
73.5200
 30
0.0000
 41
0.6500
 42
1.0000
 43
1.0000
 50
90.0000
  0
INSERT
  8
31
  2
RECT
 10
41.2750
 20
75.0700
 30
0.0000
 41
0.6500
 42
1.0000
 43
1.0000
 50
90.0000
  0
INSERT
  8
31
  2
RECT
 10
38.1000
 20
21.0950
 30
0.0000
 41
0.6500
 42
1.0000
 43
1.0000
 50
270.0000
  0
INSERT
  8
31
  2
RECT
 10
38.1000
 20
19.5450
 30
0.0000
 41
0.6500
 42
1.0000
 43
1.0000
 50
270.0000
  0
INSERT
  8
31
  2
RECT
 10
40.0050
 20
48.4000
 30
0.0000
 41
0.6500
 42
1.0000
 43
1.0000
 50
270.0000
  0
INSERT
  8
31
  2
RECT
 10
40.0050
 20
46.8500
 30
0.0000
 41
0.6500
 42
1.0000
 43
1.0000
 50
270.0000
  0
INSERT
  8
31
  2
RECT
 10
41.9100
 20
48.4000
 30
0.0000
 41
0.6500
 42
1.0000
 43
1.0000
 50
270.0000
  0
INSERT
  8
31
  2
RECT
 10
41.9100
 20
46.8500
 30
0.0000
 41
0.6500
 42
1.0000
 43
1.0000
 50
270.0000
  0
INSERT
  8
31
  2
RECT
 10
59.5500
 20
50.8000
 30
0.0000
 41
0.6500
 42
1.0000
 43
1.0000
 50
0.0000
  0
INSERT
  8
31
  2
RECT
 10
61.1000
 20
50.8000
 30
0.0000
 41
0.6500
 42
1.0000
 43
1.0000
 50
0.0000
  0
INSERT
  8
31
  2
RECT
 10
31.2925
 20
27.9400
 30
0.0000
 41
0.6500
 42
1.0000
 43
1.0000
 50
0.0000
  0
INSERT
  8
31
  2
RECT
 10
32.8425
 20
27.9400
 30
0.0000
 41
0.6500
 42
1.0000
 43
1.0000
 50
0.0000
  0
INSERT
  8
31
  2
RECT
 10
31.2550
 20
29.8450
 30
0.0000
 41
0.6500
 42
1.0000
 43
1.0000
 50
180.0000
  0
INSERT
  8
31
  2
RECT
 10
29.7050
 20
29.8450
 30
0.0000
 41
0.6500
 42
1.0000
 43
1.0000
 50
180.0000
  0
INSERT
  8
31
  2
RECT
 10
54.0450
 20
70.2700
 30
0.0000
 41
0.4500
 42
0.9000
 43
1.0000
 50
0.0000
  0
INSERT
  8
31
  2
RECT
 10
54.0450
 20
71.9700
 30
0.0000
 41
0.4500
 42
0.9000
 43
1.0000
 50
0.0000
  0
INSERT
  8
31
  2
RECT
 10
54.8450
 20
70.2700
 30
0.0000
 41
0.4500
 42
0.9000
 43
1.0000
 50
0.0000
  0
INSERT
  8
31
  2
RECT
 10
54.8450
 20
71.9700
 30
0.0000
 41
0.4500
 42
0.9000
 43
1.0000
 50
0.0000
  0
INSERT
  8
31
  2
RECT
 10
55.6450
 20
70.2700
 30
0.0000
 41
0.4500
 42
0.9000
 43
1.0000
 50
0.0000
  0
INSERT
  8
31
  2
RECT
 10
55.6450
 20
71.9700
 30
0.0000
 41
0.4500
 42
0.9000
 43
1.0000
 50
0.0000
  0
INSERT
  8
31
  2
RECT
 10
56.4450
 20
70.2700
 30
0.0000
 41
0.4500
 42
0.9000
 43
1.0000
 50
0.0000
  0
INSERT
  8
31
  2
RECT
 10
56.4450
 20
71.9700
 30
0.0000
 41
0.4500
 42
0.9000
 43
1.0000
 50
0.0000
  0
INSERT
  8
31
  2
RECT
 10
46.9200
 20
71.9700
 30
0.0000
 41
0.4500
 42
0.9000
 43
1.0000
 50
180.0000
  0
INSERT
  8
31
  2
RECT
 10
46.9200
 20
70.2700
 30
0.0000
 41
0.4500
 42
0.9000
 43
1.0000
 50
180.0000
  0
INSERT
  8
31
  2
RECT
 10
46.1200
 20
71.9700
 30
0.0000
 41
0.4500
 42
0.9000
 43
1.0000
 50
180.0000
  0
INSERT
  8
31
  2
RECT
 10
46.1200
 20
70.2700
 30
0.0000
 41
0.4500
 42
0.9000
 43
1.0000
 50
180.0000
  0
INSERT
  8
31
  2
RECT
 10
45.3200
 20
71.9700
 30
0.0000
 41
0.4500
 42
0.9000
 43
1.0000
 50
180.0000
  0
INSERT
  8
31
  2
RECT
 10
45.3200
 20
70.2700
 30
0.0000
 41
0.4500
 42
0.9000
 43
1.0000
 50
180.0000
  0
INSERT
  8
31
  2
RECT
 10
44.5200
 20
71.9700
 30
0.0000
 41
0.4500
 42
0.9000
 43
1.0000
 50
180.0000
  0
INSERT
  8
31
  2
RECT
 10
44.5200
 20
70.2700
 30
0.0000
 41
0.4500
 42
0.9000
 43
1.0000
 50
180.0000
  0
INSERT
  8
31
  2
RECT
 10
7.8225
 20
53.5450
 30
0.0000
 41
0.8500
 42
0.3800
 43
1.0000
 50
270.0000
  0
INSERT
  8
31
  2
RECT
 10
8.3225
 20
53.5450
 30
0.0000
 41
0.8500
 42
0.3800
 43
1.0000
 50
270.0000
  0
INSERT
  8
31
  2
RECT
 10
8.8225
 20
53.5450
 30
0.0000
 41
0.8500
 42
0.3800
 43
1.0000
 50
270.0000
  0
INSERT
  8
31
  2
RECT
 10
9.3225
 20
53.5450
 30
0.0000
 41
0.8500
 42
0.3800
 43
1.0000
 50
270.0000
  0
INSERT
  8
31
  2
RECT
 10
10.0475
 20
52.8200
 30
0.0000
 41
0.3800
 42
0.8500
 43
1.0000
 50
270.0000
  0
INSERT
  8
31
  2
RECT
 10
10.0475
 20
52.3200
 30
0.0000
 41
0.3800
 42
0.8500
 43
1.0000
 50
270.0000
  0
INSERT
  8
31
  2
RECT
 10
10.0475
 20
51.8200
 30
0.0000
 41
0.3800
 42
0.8500
 43
1.0000
 50
270.0000
  0
INSERT
  8
31
  2
RECT
 10
10.0475
 20
51.3200
 30
0.0000
 41
0.3800
 42
0.8500
 43
1.0000
 50
270.0000
  0
INSERT
  8
31
  2
RECT
 10
7.8225
 20
50.5950
 30
0.0000
 41
0.8500
 42
0.3800
 43
1.0000
 50
270.0000
  0
INSERT
  8
31
  2
RECT
 10
8.3225
 20
50.5950
 30
0.0000
 41
0.8500
 42
0.3800
 43
1.0000
 50
270.0000
  0
INSERT
  8
31
  2
RECT
 10
8.8225
 20
50.5950
 30
0.0000
 41
0.8500
 42
0.3800
 43
1.0000
 50
270.0000
  0
INSERT
  8
31
  2
RECT
 10
9.3225
 20
50.5950
 30
0.0000
 41
0.8500
 42
0.3800
 43
1.0000
 50
270.0000
  0
INSERT
  8
31
  2
RECT
 10
7.0975
 20
52.8200
 30
0.0000
 41
0.3800
 42
0.8500
 43
1.0000
 50
270.0000
  0
INSERT
  8
31
  2
RECT
 10
7.0975
 20
52.3200
 30
0.0000
 41
0.3800
 42
0.8500
 43
1.0000
 50
270.0000
  0
INSERT
  8
31
  2
RECT
 10
7.0975
 20
51.8200
 30
0.0000
 41
0.3800
 42
0.8500
 43
1.0000
 50
270.0000
  0
INSERT
  8
31
  2
RECT
 10
7.0975
 20
51.3200
 30
0.0000
 41
0.3800
 42
0.8500
 43
1.0000
 50
270.0000
  0
INSERT
  8
31
  2
RECT
 10
8.5725
 20
52.0700
 30
0.0000
 41
1.0200
 42
1.0200
 43
1.0000
 50
270.0000
  0
INSERT
  8
31
  2
RECT
 10
40.0100
 20
14.2650
 30
0.0000
 41
1.0000
 42
0.5000
 43
1.0000
 50
0.0000
  0
INSERT
  8
31
  2
RECT
 10
40.0100
 20
14.9150
 30
0.0000
 41
1.0000
 42
0.5000
 43
1.0000
 50
0.0000
  0
INSERT
  8
31
  2
RECT
 10
40.0100
 20
15.5650
 30
0.0000
 41
1.0000
 42
0.5000
 43
1.0000
 50
0.0000
  0
INSERT
  8
31
  2
RECT
 10
40.0100
 20
16.2150
 30
0.0000
 41
1.0000
 42
0.5000
 43
1.0000
 50
0.0000
  0
INSERT
  8
31
  2
RECT
 10
40.9350
 20
17.1400
 30
0.0000
 41
0.5000
 42
1.0000
 43
1.0000
 50
0.0000
  0
INSERT
  8
31
  2
RECT
 10
41.5850
 20
17.1400
 30
0.0000
 41
0.5000
 42
1.0000
 43
1.0000
 50
0.0000
  0
INSERT
  8
31
  2
RECT
 10
42.2350
 20
17.1400
 30
0.0000
 41
0.5000
 42
1.0000
 43
1.0000
 50
0.0000
  0
INSERT
  8
31
  2
RECT
 10
42.8850
 20
17.1400
 30
0.0000
 41
0.5000
 42
1.0000
 43
1.0000
 50
0.0000
  0
INSERT
  8
31
  2
RECT
 10
43.8100
 20
14.2650
 30
0.0000
 41
1.0000
 42
0.5000
 43
1.0000
 50
0.0000
  0
INSERT
  8
31
  2
RECT
 10
43.8100
 20
14.9150
 30
0.0000
 41
1.0000
 42
0.5000
 43
1.0000
 50
0.0000
  0
INSERT
  8
31
  2
RECT
 10
43.8100
 20
15.5650
 30
0.0000
 41
1.0000
 42
0.5000
 43
1.0000
 50
0.0000
  0
INSERT
  8
31
  2
RECT
 10
43.8100
 20
16.2150
 30
0.0000
 41
1.0000
 42
0.5000
 43
1.0000
 50
0.0000
  0
INSERT
  8
31
  2
RECT
 10
40.9350
 20
13.3400
 30
0.0000
 41
0.5000
 42
1.0000
 43
1.0000
 50
0.0000
  0
INSERT
  8
31
  2
RECT
 10
41.5850
 20
13.3400
 30
0.0000
 41
0.5000
 42
1.0000
 43
1.0000
 50
0.0000
  0
INSERT
  8
31
  2
RECT
 10
42.2350
 20
13.3400
 30
0.0000
 41
0.5000
 42
1.0000
 43
1.0000
 50
0.0000
  0
INSERT
  8
31
  2
RECT
 10
42.8850
 20
13.3400
 30
0.0000
 41
0.5000
 42
1.0000
 43
1.0000
 50
0.0000
  0
INSERT
  8
31
  2
RECT
 10
41.9100
 20
15.2400
 30
0.0000
 41
1.2600
 42
1.2600
 43
1.0000
 50
0.0000
  0
INSERT
  8
31
  2
RECT
 10
53.3450
 20
14.2650
 30
0.0000
 41
1.0000
 42
0.5000
 43
1.0000
 50
0.0000
  0
INSERT
  8
31
  2
RECT
 10
53.3450
 20
14.9150
 30
0.0000
 41
1.0000
 42
0.5000
 43
1.0000
 50
0.0000
  0
INSERT
  8
31
  2
RECT
 10
53.3450
 20
15.5650
 30
0.0000
 41
1.0000
 42
0.5000
 43
1.0000
 50
0.0000
  0
INSERT
  8
31
  2
RECT
 10
53.3450
 20
16.2150
 30
0.0000
 41
1.0000
 42
0.5000
 43
1.0000
 50
0.0000
  0
INSERT
  8
31
  2
RECT
 10
54.2700
 20
17.1400
 30
0.0000
 41
0.5000
 42
1.0000
 43
1.0000
 50
0.0000
  0
INSERT
  8
31
  2
RECT
 10
54.9200
 20
17.1400
 30
0.0000
 41
0.5000
 42
1.0000
 43
1.0000
 50
0.0000
  0
INSERT
  8
31
  2
RECT
 10
55.5700
 20
17.1400
 30
0.0000
 41
0.5000
 42
1.0000
 43
1.0000
 50
0.0000
  0
INSERT
  8
31
  2
RECT
 10
56.2200
 20
17.1400
 30
0.0000
 41
0.5000
 42
1.0000
 43
1.0000
 50
0.0000
  0
INSERT
  8
31
  2
RECT
 10
57.1450
 20
14.2650
 30
0.0000
 41
1.0000
 42
0.5000
 43
1.0000
 50
0.0000
  0
INSERT
  8
31
  2
RECT
 10
57.1450
 20
14.9150
 30
0.0000
 41
1.0000
 42
0.5000
 43
1.0000
 50
0.0000
  0
INSERT
  8
31
  2
RECT
 10
57.1450
 20
15.5650
 30
0.0000
 41
1.0000
 42
0.5000
 43
1.0000
 50
0.0000
  0
INSERT
  8
31
  2
RECT
 10
57.1450
 20
16.2150
 30
0.0000
 41
1.0000
 42
0.5000
 43
1.0000
 50
0.0000
  0
INSERT
  8
31
  2
RECT
 10
54.2700
 20
13.3400
 30
0.0000
 41
0.5000
 42
1.0000
 43
1.0000
 50
0.0000
  0
INSERT
  8
31
  2
RECT
 10
54.9200
 20
13.3400
 30
0.0000
 41
0.5000
 42
1.0000
 43
1.0000
 50
0.0000
  0
INSERT
  8
31
  2
RECT
 10
55.5700
 20
13.3400
 30
0.0000
 41
0.5000
 42
1.0000
 43
1.0000
 50
0.0000
  0
INSERT
  8
31
  2
RECT
 10
56.2200
 20
13.3400
 30
0.0000
 41
0.5000
 42
1.0000
 43
1.0000
 50
0.0000
  0
INSERT
  8
31
  2
RECT
 10
55.2450
 20
15.2400
 30
0.0000
 41
1.2600
 42
1.2600
 43
1.0000
 50
0.0000
  0
INSERT
  8
31
  2
RECT
 10
11.4350
 20
14.2650
 30
0.0000
 41
1.0000
 42
0.5000
 43
1.0000
 50
0.0000
  0
INSERT
  8
31
  2
RECT
 10
11.4350
 20
14.9150
 30
0.0000
 41
1.0000
 42
0.5000
 43
1.0000
 50
0.0000
  0
INSERT
  8
31
  2
RECT
 10
11.4350
 20
15.5650
 30
0.0000
 41
1.0000
 42
0.5000
 43
1.0000
 50
0.0000
  0
INSERT
  8
31
  2
RECT
 10
11.4350
 20
16.2150
 30
0.0000
 41
1.0000
 42
0.5000
 43
1.0000
 50
0.0000
  0
INSERT
  8
31
  2
RECT
 10
12.3600
 20
17.1400
 30
0.0000
 41
0.5000
 42
1.0000
 43
1.0000
 50
0.0000
  0
INSERT
  8
31
  2
RECT
 10
13.0100
 20
17.1400
 30
0.0000
 41
0.5000
 42
1.0000
 43
1.0000
 50
0.0000
  0
INSERT
  8
31
  2
RECT
 10
13.6600
 20
17.1400
 30
0.0000
 41
0.5000
 42
1.0000
 43
1.0000
 50
0.0000
  0
INSERT
  8
31
  2
RECT
 10
14.3100
 20
17.1400
 30
0.0000
 41
0.5000
 42
1.0000
 43
1.0000
 50
0.0000
  0
INSERT
  8
31
  2
RECT
 10
15.2350
 20
14.2650
 30
0.0000
 41
1.0000
 42
0.5000
 43
1.0000
 50
0.0000
  0
INSERT
  8
31
  2
RECT
 10
15.2350
 20
14.9150
 30
0.0000
 41
1.0000
 42
0.5000
 43
1.0000
 50
0.0000
  0
INSERT
  8
31
  2
RECT
 10
15.2350
 20
15.5650
 30
0.0000
 41
1.0000
 42
0.5000
 43
1.0000
 50
0.0000
  0
INSERT
  8
31
  2
RECT
 10
15.2350
 20
16.2150
 30
0.0000
 41
1.0000
 42
0.5000
 43
1.0000
 50
0.0000
  0
INSERT
  8
31
  2
RECT
 10
12.3600
 20
13.3400
 30
0.0000
 41
0.5000
 42
1.0000
 43
1.0000
 50
0.0000
  0
INSERT
  8
31
  2
RECT
 10
13.0100
 20
13.3400
 30
0.0000
 41
0.5000
 42
1.0000
 43
1.0000
 50
0.0000
  0
INSERT
  8
31
  2
RECT
 10
13.6600
 20
13.3400
 30
0.0000
 41
0.5000
 42
1.0000
 43
1.0000
 50
0.0000
  0
INSERT
  8
31
  2
RECT
 10
14.3100
 20
13.3400
 30
0.0000
 41
0.5000
 42
1.0000
 43
1.0000
 50
0.0000
  0
INSERT
  8
31
  2
RECT
 10
13.3350
 20
15.2400
 30
0.0000
 41
1.2600
 42
1.2600
 43
1.0000
 50
0.0000
  0
INSERT
  8
31
  2
RECT
 10
24.7700
 20
14.2650
 30
0.0000
 41
1.0000
 42
0.5000
 43
1.0000
 50
0.0000
  0
INSERT
  8
31
  2
RECT
 10
24.7700
 20
14.9150
 30
0.0000
 41
1.0000
 42
0.5000
 43
1.0000
 50
0.0000
  0
INSERT
  8
31
  2
RECT
 10
24.7700
 20
15.5650
 30
0.0000
 41
1.0000
 42
0.5000
 43
1.0000
 50
0.0000
  0
INSERT
  8
31
  2
RECT
 10
24.7700
 20
16.2150
 30
0.0000
 41
1.0000
 42
0.5000
 43
1.0000
 50
0.0000
  0
INSERT
  8
31
  2
RECT
 10
25.6950
 20
17.1400
 30
0.0000
 41
0.5000
 42
1.0000
 43
1.0000
 50
0.0000
  0
INSERT
  8
31
  2
RECT
 10
26.3450
 20
17.1400
 30
0.0000
 41
0.5000
 42
1.0000
 43
1.0000
 50
0.0000
  0
INSERT
  8
31
  2
RECT
 10
26.9950
 20
17.1400
 30
0.0000
 41
0.5000
 42
1.0000
 43
1.0000
 50
0.0000
  0
INSERT
  8
31
  2
RECT
 10
27.6450
 20
17.1400
 30
0.0000
 41
0.5000
 42
1.0000
 43
1.0000
 50
0.0000
  0
INSERT
  8
31
  2
RECT
 10
28.5700
 20
14.2650
 30
0.0000
 41
1.0000
 42
0.5000
 43
1.0000
 50
0.0000
  0
INSERT
  8
31
  2
RECT
 10
28.5700
 20
14.9150
 30
0.0000
 41
1.0000
 42
0.5000
 43
1.0000
 50
0.0000
  0
INSERT
  8
31
  2
RECT
 10
28.5700
 20
15.5650
 30
0.0000
 41
1.0000
 42
0.5000
 43
1.0000
 50
0.0000
  0
INSERT
  8
31
  2
RECT
 10
28.5700
 20
16.2150
 30
0.0000
 41
1.0000
 42
0.5000
 43
1.0000
 50
0.0000
  0
INSERT
  8
31
  2
RECT
 10
25.6950
 20
13.3400
 30
0.0000
 41
0.5000
 42
1.0000
 43
1.0000
 50
0.0000
  0
INSERT
  8
31
  2
RECT
 10
26.3450
 20
13.3400
 30
0.0000
 41
0.5000
 42
1.0000
 43
1.0000
 50
0.0000
  0
INSERT
  8
31
  2
RECT
 10
26.9950
 20
13.3400
 30
0.0000
 41
0.5000
 42
1.0000
 43
1.0000
 50
0.0000
  0
INSERT
  8
31
  2
RECT
 10
27.6450
 20
13.3400
 30
0.0000
 41
0.5000
 42
1.0000
 43
1.0000
 50
0.0000
  0
INSERT
  8
31
  2
RECT
 10
26.6700
 20
15.2400
 30
0.0000
 41
1.2600
 42
1.2600
 43
1.0000
 50
0.0000
  0
INSERT
  8
31
  2
RECT
 10
48.2650
 20
60.6200
 30
0.0000
 41
1.0000
 42
0.4000
 43
1.0000
 50
0.0000
  0
INSERT
  8
31
  2
RECT
 10
48.2650
 20
61.2700
 30
0.0000
 41
1.0000
 42
0.4000
 43
1.0000
 50
0.0000
  0
INSERT
  8
31
  2
RECT
 10
48.2650
 20
61.9200
 30
0.0000
 41
1.0000
 42
0.4000
 43
1.0000
 50
0.0000
  0
INSERT
  8
31
  2
RECT
 10
48.2650
 20
62.5700
 30
0.0000
 41
1.0000
 42
0.4000
 43
1.0000
 50
0.0000
  0
INSERT
  8
31
  2
RECT
 10
49.1900
 20
63.4950
 30
0.0000
 41
0.4000
 42
1.0000
 43
1.0000
 50
0.0000
  0
INSERT
  8
31
  2
RECT
 10
49.8400
 20
63.4950
 30
0.0000
 41
0.4000
 42
1.0000
 43
1.0000
 50
0.0000
  0
INSERT
  8
31
  2
RECT
 10
50.4900
 20
63.4950
 30
0.0000
 41
0.4000
 42
1.0000
 43
1.0000
 50
0.0000
  0
INSERT
  8
31
  2
RECT
 10
51.1400
 20
63.4950
 30
0.0000
 41
0.4000
 42
1.0000
 43
1.0000
 50
0.0000
  0
INSERT
  8
31
  2
RECT
 10
52.0650
 20
60.6200
 30
0.0000
 41
1.0000
 42
0.4000
 43
1.0000
 50
0.0000
  0
INSERT
  8
31
  2
RECT
 10
52.0650
 20
61.2700
 30
0.0000
 41
1.0000
 42
0.4000
 43
1.0000
 50
0.0000
  0
INSERT
  8
31
  2
RECT
 10
52.0650
 20
61.9200
 30
0.0000
 41
1.0000
 42
0.4000
 43
1.0000
 50
0.0000
  0
INSERT
  8
31
  2
RECT
 10
52.0650
 20
62.5700
 30
0.0000
 41
1.0000
 42
0.4000
 43
1.0000
 50
0.0000
  0
INSERT
  8
31
  2
RECT
 10
49.1900
 20
59.6950
 30
0.0000
 41
0.4000
 42
1.0000
 43
1.0000
 50
0.0000
  0
INSERT
  8
31
  2
RECT
 10
49.8400
 20
59.6950
 30
0.0000
 41
0.4000
 42
1.0000
 43
1.0000
 50
0.0000
  0
INSERT
  8
31
  2
RECT
 10
50.4900
 20
59.6950
 30
0.0000
 41
0.4000
 42
1.0000
 43
1.0000
 50
0.0000
  0
INSERT
  8
31
  2
RECT
 10
51.1400
 20
59.6950
 30
0.0000
 41
0.4000
 42
1.0000
 43
1.0000
 50
0.0000
  0
INSERT
  8
31
  2
RECT
 10
50.1650
 20
61.5950
 30
0.0000
 41
1.2960
 42
1.2960
 43
1.0000
 50
0.0000
  0
INSERT
  8
31
  2
RECT
 10
35.5400
 20
47.5550
 30
0.0000
 41
0.8500
 42
0.3800
 43
1.0000
 50
90.0000
  0
INSERT
  8
31
  2
RECT
 10
35.0400
 20
47.5550
 30
0.0000
 41
0.8500
 42
0.3800
 43
1.0000
 50
90.0000
  0
INSERT
  8
31
  2
RECT
 10
34.5400
 20
47.5550
 30
0.0000
 41
0.8500
 42
0.3800
 43
1.0000
 50
90.0000
  0
INSERT
  8
31
  2
RECT
 10
34.0400
 20
47.5550
 30
0.0000
 41
0.8500
 42
0.3800
 43
1.0000
 50
90.0000
  0
INSERT
  8
31
  2
RECT
 10
33.5400
 20
47.5550
 30
0.0000
 41
0.8500
 42
0.3800
 43
1.0000
 50
90.0000
  0
INSERT
  8
31
  2
RECT
 10
33.0400
 20
47.5550
 30
0.0000
 41
0.8500
 42
0.3800
 43
1.0000
 50
90.0000
  0
INSERT
  8
31
  2
RECT
 10
32.3150
 20
48.2800
 30
0.0000
 41
0.3800
 42
0.8500
 43
1.0000
 50
90.0000
  0
INSERT
  8
31
  2
RECT
 10
32.3150
 20
48.7800
 30
0.0000
 41
0.3800
 42
0.8500
 43
1.0000
 50
90.0000
  0
INSERT
  8
31
  2
RECT
 10
32.3150
 20
49.2800
 30
0.0000
 41
0.3800
 42
0.8500
 43
1.0000
 50
90.0000
  0
INSERT
  8
31
  2
RECT
 10
32.3150
 20
49.7800
 30
0.0000
 41
0.3800
 42
0.8500
 43
1.0000
 50
90.0000
  0
INSERT
  8
31
  2
RECT
 10
32.3150
 20
50.2800
 30
0.0000
 41
0.3800
 42
0.8500
 43
1.0000
 50
90.0000
  0
INSERT
  8
31
  2
RECT
 10
32.3150
 20
50.7800
 30
0.0000
 41
0.3800
 42
0.8500
 43
1.0000
 50
90.0000
  0
INSERT
  8
31
  2
RECT
 10
35.5400
 20
51.5050
 30
0.0000
 41
0.8500
 42
0.3800
 43
1.0000
 50
90.0000
  0
INSERT
  8
31
  2
RECT
 10
35.0400
 20
51.5050
 30
0.0000
 41
0.8500
 42
0.3800
 43
1.0000
 50
90.0000
  0
INSERT
  8
31
  2
RECT
 10
34.5400
 20
51.5050
 30
0.0000
 41
0.8500
 42
0.3800
 43
1.0000
 50
90.0000
  0
INSERT
  8
31
  2
RECT
 10
34.0400
 20
51.5050
 30
0.0000
 41
0.8500
 42
0.3800
 43
1.0000
 50
90.0000
  0
INSERT
  8
31
  2
RECT
 10
33.5400
 20
51.5050
 30
0.0000
 41
0.8500
 42
0.3800
 43
1.0000
 50
90.0000
  0
INSERT
  8
31
  2
RECT
 10
33.0400
 20
51.5050
 30
0.0000
 41
0.8500
 42
0.3800
 43
1.0000
 50
90.0000
  0
INSERT
  8
31
  2
RECT
 10
36.2650
 20
48.2800
 30
0.0000
 41
0.3800
 42
0.8500
 43
1.0000
 50
90.0000
  0
INSERT
  8
31
  2
RECT
 10
36.2650
 20
48.7800
 30
0.0000
 41
0.3800
 42
0.8500
 43
1.0000
 50
90.0000
  0
INSERT
  8
31
  2
RECT
 10
36.2650
 20
49.2800
 30
0.0000
 41
0.3800
 42
0.8500
 43
1.0000
 50
90.0000
  0
INSERT
  8
31
  2
RECT
 10
36.2650
 20
49.7800
 30
0.0000
 41
0.3800
 42
0.8500
 43
1.0000
 50
90.0000
  0
INSERT
  8
31
  2
RECT
 10
36.2650
 20
50.2800
 30
0.0000
 41
0.3800
 42
0.8500
 43
1.0000
 50
90.0000
  0
INSERT
  8
31
  2
RECT
 10
36.2650
 20
50.7800
 30
0.0000
 41
0.3800
 42
0.8500
 43
1.0000
 50
90.0000
  0
INSERT
  8
31
  2
RECT
 10
37.7200
 20
22.4950
 30
0.0000
 41
0.3600
 42
0.5700
 43
1.0000
 50
90.0000
  0
INSERT
  8
31
  2
RECT
 10
37.7200
 20
22.9950
 30
0.0000
 41
0.3600
 42
0.5700
 43
1.0000
 50
90.0000
  0
INSERT
  8
31
  2
RECT
 10
37.7200
 20
23.4950
 30
0.0000
 41
0.3600
 42
0.5700
 43
1.0000
 50
90.0000
  0
INSERT
  8
31
  2
RECT
 10
37.7200
 20
23.9950
 30
0.0000
 41
0.3600
 42
0.5700
 43
1.0000
 50
90.0000
  0
INSERT
  8
31
  2
RECT
 10
37.7200
 20
24.4950
 30
0.0000
 41
0.3600
 42
0.5700
 43
1.0000
 50
90.0000
  0
INSERT
  8
31
  2
RECT
 10
42.2900
 20
24.4950
 30
0.0000
 41
0.3600
 42
0.5700
 43
1.0000
 50
270.0000
  0
INSERT
  8
31
  2
RECT
 10
42.2900
 20
23.9950
 30
0.0000
 41
0.3600
 42
0.5700
 43
1.0000
 50
270.0000
  0
INSERT
  8
31
  2
RECT
 10
42.2900
 20
23.4950
 30
0.0000
 41
0.3600
 42
0.5700
 43
1.0000
 50
270.0000
  0
INSERT
  8
31
  2
RECT
 10
42.2900
 20
22.9950
 30
0.0000
 41
0.3600
 42
0.5700
 43
1.0000
 50
270.0000
  0
INSERT
  8
31
  2
RECT
 10
42.2900
 20
22.4950
 30
0.0000
 41
0.3600
 42
0.5700
 43
1.0000
 50
270.0000
  0
INSERT
  8
31
  2
RECT
 10
51.4825
 20
68.0950
 30
0.0000
 41
0.8500
 42
0.2800
 43
1.0000
 50
90.0000
  0
INSERT
  8
31
  2
RECT
 10
49.4825
 20
68.0950
 30
0.0000
 41
0.8500
 42
0.2800
 43
1.0000
 50
90.0000
  0
INSERT
  8
31
  2
RECT
 10
48.7275
 20
68.8500
 30
0.0000
 41
0.2800
 42
0.8500
 43
1.0000
 50
90.0000
  0
INSERT
  8
31
  2
RECT
 10
48.7275
 20
69.3500
 30
0.0000
 41
0.2800
 42
0.8500
 43
1.0000
 50
90.0000
  0
INSERT
  8
31
  2
RECT
 10
48.7275
 20
69.8500
 30
0.0000
 41
0.2800
 42
0.8500
 43
1.0000
 50
90.0000
  0
INSERT
  8
31
  2
RECT
 10
48.7275
 20
70.3500
 30
0.0000
 41
0.2800
 42
0.8500
 43
1.0000
 50
90.0000
  0
INSERT
  8
31
  2
RECT
 10
48.7275
 20
70.8500
 30
0.0000
 41
0.2800
 42
0.8500
 43
1.0000
 50
90.0000
  0
INSERT
  8
31
  2
RECT
 10
51.4825
 20
71.6050
 30
0.0000
 41
0.8500
 42
0.2800
 43
1.0000
 50
90.0000
  0
INSERT
  8
31
  2
RECT
 10
49.4825
 20
71.6050
 30
0.0000
 41
0.8500
 42
0.2800
 43
1.0000
 50
90.0000
  0
INSERT
  8
31
  2
RECT
 10
52.2375
 20
68.8500
 30
0.0000
 41
0.2800
 42
0.8500
 43
1.0000
 50
90.0000
  0
INSERT
  8
31
  2
RECT
 10
52.2375
 20
69.3500
 30
0.0000
 41
0.2800
 42
0.8500
 43
1.0000
 50
90.0000
  0
INSERT
  8
31
  2
RECT
 10
52.2375
 20
69.8500
 30
0.0000
 41
0.2800
 42
0.8500
 43
1.0000
 50
90.0000
  0
INSERT
  8
31
  2
RECT
 10
52.2375
 20
70.3500
 30
0.0000
 41
0.2800
 42
0.8500
 43
1.0000
 50
90.0000
  0
INSERT
  8
31
  2
RECT
 10
52.2375
 20
70.8500
 30
0.0000
 41
0.2800
 42
0.8500
 43
1.0000
 50
90.0000
  0
INSERT
  8
31
  2
RECT
 10
50.4825
 20
69.8500
 30
0.0000
 41
1.0200
 42
1.0200
 43
1.0000
 50
90.0000
  0
INSERT
  8
31
  2
RECT
 10
11.5225
 20
70.5350
 30
0.0000
 41
0.7000
 42
0.7500
 43
1.0000
 50
180.0000
  0
INSERT
  8
31
  2
RECT
 10
16.2475
 20
58.4850
 30
0.0000
 41
0.6500
 42
0.7500
 43
1.0000
 50
180.0000
  0
INSERT
  8
31
  2
RECT
 10
14.5225
 20
70.5350
 30
0.0000
 41
0.7000
 42
0.7500
 43
1.0000
 50
180.0000
  0
INSERT
  8
31
  2
RECT
 10
16.0225
 20
71.7350
 30
0.0000
 41
0.7000
 42
0.7500
 43
1.0000
 50
180.0000
  0
INSERT
  8
31
  2
RECT
 10
12.0225
 20
71.7350
 30
0.0000
 41
0.7000
 42
0.7500
 43
1.0000
 50
180.0000
  0
INSERT
  8
31
  2
RECT
 10
9.8975
 20
58.4850
 30
0.0000
 41
0.6500
 42
0.7500
 43
1.0000
 50
180.0000
  0
INSERT
  8
31
  2
RECT
 10
16.5225
 20
70.5350
 30
0.0000
 41
0.7000
 42
0.7500
 43
1.0000
 50
180.0000
  0
INSERT
  8
31
  2
RECT
 10
12.5225
 20
70.5350
 30
0.0000
 41
0.7000
 42
0.7500
 43
1.0000
 50
180.0000
  0
INSERT
  8
31
  2
RECT
 10
17.5225
 20
70.5350
 30
0.0000
 41
0.7000
 42
0.7500
 43
1.0000
 50
180.0000
  0
INSERT
  8
31
  2
RECT
 10
10.5225
 20
70.5350
 30
0.0000
 41
0.7000
 42
0.7500
 43
1.0000
 50
180.0000
  0
INSERT
  8
31
  2
RECT
 10
19.2325
 20
73.2350
 30
0.0000
 41
0.7450
 42
1.1500
 43
1.0000
 50
180.0000
  0
INSERT
  8
31
  2
RECT
 10
6.1975
 20
73.3100
 30
0.0000
 41
0.9500
 42
0.9000
 43
1.0000
 50
180.0000
  0
INSERT
  8
31
  2
RECT
 10
6.7600
 20
58.5100
 30
0.0000
 41
1.3000
 42
0.8500
 43
1.0000
 50
180.0000
  0
INSERT
  8
31
  2
RECT
 10
17.4850
 20
58.5100
 30
0.0000
 41
1.2000
 42
0.8500
 43
1.0000
 50
180.0000
  0
INSERT
  8
31
  2
RECT
 10
13.5225
 20
70.5350
 30
0.0000
 41
0.7000
 42
0.7500
 43
1.0000
 50
180.0000
  0
INSERT
  8
31
  2
RECT
 10
15.5225
 20
70.5350
 30
0.0000
 41
0.7000
 42
0.7500
 43
1.0000
 50
180.0000
  0
INSERT
  8
31
  2
RECT
 10
26.4200
 20
72.0050
 30
0.0000
 41
0.8000
 42
1.6000
 43
1.0000
 50
90.0000
  0
INSERT
  8
31
  2
RECT
 10
26.4200
 20
70.8050
 30
0.0000
 41
0.8000
 42
1.6000
 43
1.0000
 50
90.0000
  0
INSERT
  8
31
  2
RECT
 10
26.4200
 20
69.6050
 30
0.0000
 41
0.8000
 42
1.6000
 43
1.0000
 50
90.0000
  0
INSERT
  8
31
  2
RECT
 10
26.4200
 20
68.4050
 30
0.0000
 41
0.8000
 42
1.6000
 43
1.0000
 50
90.0000
  0
INSERT
  8
31
  2
RECT
 10
26.4200
 20
67.2050
 30
0.0000
 41
0.8000
 42
1.6000
 43
1.0000
 50
90.0000
  0
INSERT
  8
31
  2
RECT
 10
26.4200
 20
66.0050
 30
0.0000
 41
0.8000
 42
1.6000
 43
1.0000
 50
90.0000
  0
INSERT
  8
31
  2
RECT
 10
26.4200
 20
64.8050
 30
0.0000
 41
0.8000
 42
1.6000
 43
1.0000
 50
90.0000
  0
INSERT
  8
31
  2
RECT
 10
26.4200
 20
63.6050
 30
0.0000
 41
0.8000
 42
1.6000
 43
1.0000
 50
90.0000
  0
INSERT
  8
31
  2
RECT
 10
26.4200
 20
62.4050
 30
0.0000
 41
0.8000
 42
1.6000
 43
1.0000
 50
90.0000
  0
INSERT
  8
31
  2
RECT
 10
26.4200
 20
61.2050
 30
0.0000
 41
0.8000
 42
1.6000
 43
1.0000
 50
90.0000
  0
INSERT
  8
31
  2
RECT
 10
26.4200
 20
60.0050
 30
0.0000
 41
0.8000
 42
1.6000
 43
1.0000
 50
90.0000
  0
INSERT
  8
31
  2
RECT
 10
26.4200
 20
58.8050
 30
0.0000
 41
0.8000
 42
1.6000
 43
1.0000
 50
90.0000
  0
INSERT
  8
31
  2
RECT
 10
39.6200
 20
58.8050
 30
0.0000
 41
0.8000
 42
1.6000
 43
1.0000
 50
270.0000
  0
INSERT
  8
31
  2
RECT
 10
39.6200
 20
60.0050
 30
0.0000
 41
0.8000
 42
1.6000
 43
1.0000
 50
270.0000
  0
INSERT
  8
31
  2
RECT
 10
39.6200
 20
61.2050
 30
0.0000
 41
0.8000
 42
1.6000
 43
1.0000
 50
270.0000
  0
INSERT
  8
31
  2
RECT
 10
39.6200
 20
62.4050
 30
0.0000
 41
0.8000
 42
1.6000
 43
1.0000
 50
270.0000
  0
INSERT
  8
31
  2
RECT
 10
39.6200
 20
63.6050
 30
0.0000
 41
0.8000
 42
1.6000
 43
1.0000
 50
270.0000
  0
INSERT
  8
31
  2
RECT
 10
39.6200
 20
64.8050
 30
0.0000
 41
0.8000
 42
1.6000
 43
1.0000
 50
270.0000
  0
INSERT
  8
31
  2
RECT
 10
39.6200
 20
66.0050
 30
0.0000
 41
0.8000
 42
1.6000
 43
1.0000
 50
270.0000
  0
INSERT
  8
31
  2
RECT
 10
39.6200
 20
67.2050
 30
0.0000
 41
0.8000
 42
1.6000
 43
1.0000
 50
270.0000
  0
INSERT
  8
31
  2
RECT
 10
39.6200
 20
68.4050
 30
0.0000
 41
0.8000
 42
1.6000
 43
1.0000
 50
270.0000
  0
INSERT
  8
31
  2
RECT
 10
39.6200
 20
69.6050
 30
0.0000
 41
0.8000
 42
1.6000
 43
1.0000
 50
270.0000
  0
INSERT
  8
31
  2
RECT
 10
39.6200
 20
70.8050
 30
0.0000
 41
0.8000
 42
1.6000
 43
1.0000
 50
270.0000
  0
INSERT
  8
31
  2
RECT
 10
39.6200
 20
72.0050
 30
0.0000
 41
0.8000
 42
1.6000
 43
1.0000
 50
270.0000
  0
INSERT
  8
31
  2
RECT
 10
37.8200
 20
74.8050
 30
0.0000
 41
0.8000
 42
1.6000
 43
1.0000
 50
0.0000
  0
INSERT
  8
31
  2
RECT
 10
36.2200
 20
74.8050
 30
0.0000
 41
0.8000
 42
1.6000
 43
1.0000
 50
0.0000
  0
INSERT
  8
31
  2
RECT
 10
34.6200
 20
74.8050
 30
0.0000
 41
0.8000
 42
1.6000
 43
1.0000
 50
0.0000
  0
INSERT
  8
31
  2
RECT
 10
36.1200
 20
56.0050
 30
0.0000
 41
0.8000
 42
1.6000
 43
1.0000
 50
0.0000
  0
INSERT
  8
31
  2
RECT
 10
29.9200
 20
56.0050
 30
0.0000
 41
0.8000
 42
1.6000
 43
1.0000
 50
0.0000
  0
INSERT
  8
31
  2
RECT
 10
28.8978
 20
56.0050
 30
0.0000
 41
0.8000
 42
1.6000
 43
1.0000
 50
0.0000
  0
INSERT
  8
31
  2
RECT
 10
31.1200
 20
56.0050
 30
0.0000
 41
0.8000
 42
1.6000
 43
1.0000
 50
0.0000
  0
INSERT
  8
31
  2
RECT
 10
32.3200
 20
56.0050
 30
0.0000
 41
0.8000
 42
1.6000
 43
1.0000
 50
0.0000
  0
INSERT
  8
31
  2
RECT
 10
33.7200
 20
56.0050
 30
0.0000
 41
0.8000
 42
1.6000
 43
1.0000
 50
0.0000
  0
INSERT
  8
31
  2
RECT
 10
34.9200
 20
56.0050
 30
0.0000
 41
0.8000
 42
1.6000
 43
1.0000
 50
0.0000
  0
INSERT
  8
31
  2
RECT
 10
37.1422
 20
56.0050
 30
0.0000
 41
0.8000
 42
1.6000
 43
1.0000
 50
0.0000
  0
INSERT
  8
31
  2
RECT
 10
29.5100
 20
31.7500
 30
0.0000
 41
2.2000
 42
0.5000
 43
1.0000
 50
0.0000
  0
INSERT
  8
31
  2
RECT
 10
29.5100
 20
33.0200
 30
0.0000
 41
2.2000
 42
0.5000
 43
1.0000
 50
0.0000
  0
INSERT
  8
31
  2
RECT
 10
29.5100
 20
34.2900
 30
0.0000
 41
2.2000
 42
0.5000
 43
1.0000
 50
0.0000
  0
INSERT
  8
31
  2
RECT
 10
29.5100
 20
35.5600
 30
0.0000
 41
2.2000
 42
0.5000
 43
1.0000
 50
0.0000
  0
INSERT
  8
31
  2
RECT
 10
35.2600
 20
31.7500
 30
0.0000
 41
2.2000
 42
0.5000
 43
1.0000
 50
0.0000
  0
INSERT
  8
31
  2
RECT
 10
35.2600
 20
33.0200
 30
0.0000
 41
2.2000
 42
0.5000
 43
1.0000
 50
0.0000
  0
INSERT
  8
31
  2
RECT
 10
35.2600
 20
34.2900
 30
0.0000
 41
2.2000
 42
0.5000
 43
1.0000
 50
0.0000
  0
INSERT
  8
31
  2
RECT
 10
35.2600
 20
35.5600
 30
0.0000
 41
2.2000
 42
0.5000
 43
1.0000
 50
0.0000
  0
INSERT
  8
31
  2
RECT
 10
32.3850
 20
33.6550
 30
0.0000
 41
1.2300
 42
1.7250
 43
1.0000
 50
0.0000
  0
INSERT
  8
31
  2
RECT
 10
17.7650
 20
45.9350
 30
0.0000
 41
0.3500
 42
0.8500
 43
1.0000
 50
0.0000
  0
INSERT
  8
31
  2
RECT
 10
19.0650
 20
45.9350
 30
0.0000
 41
0.3500
 42
0.8500
 43
1.0000
 50
0.0000
  0
INSERT
  8
31
  2
RECT
 10
17.7650
 20
44.2350
 30
0.0000
 41
0.3500
 42
0.8500
 43
1.0000
 50
0.0000
  0
INSERT
  8
31
  2
RECT
 10
18.4150
 20
44.2350
 30
0.0000
 41
0.3500
 42
0.8500
 43
1.0000
 50
0.0000
  0
INSERT
  8
31
  2
RECT
 10
19.0650
 20
44.2350
 30
0.0000
 41
0.3500
 42
0.8500
 43
1.0000
 50
0.0000
  0
INSERT
  8
31
  2
RECT
 10
21.9513
 20
35.1300
 30
0.0000
 41
0.8500
 42
0.3800
 43
1.0000
 50
270.0000
  0
INSERT
  8
31
  2
RECT
 10
22.4513
 20
35.1300
 30
0.0000
 41
0.8500
 42
0.3800
 43
1.0000
 50
270.0000
  0
INSERT
  8
31
  2
RECT
 10
22.9513
 20
35.1300
 30
0.0000
 41
0.8500
 42
0.3800
 43
1.0000
 50
270.0000
  0
INSERT
  8
31
  2
RECT
 10
23.4513
 20
35.1300
 30
0.0000
 41
0.8500
 42
0.3800
 43
1.0000
 50
270.0000
  0
INSERT
  8
31
  2
RECT
 10
24.1762
 20
34.4050
 30
0.0000
 41
0.3800
 42
0.8500
 43
1.0000
 50
270.0000
  0
INSERT
  8
31
  2
RECT
 10
24.1762
 20
33.9050
 30
0.0000
 41
0.3800
 42
0.8500
 43
1.0000
 50
270.0000
  0
INSERT
  8
31
  2
RECT
 10
24.1762
 20
33.4050
 30
0.0000
 41
0.3800
 42
0.8500
 43
1.0000
 50
270.0000
  0
INSERT
  8
31
  2
RECT
 10
24.1762
 20
32.9050
 30
0.0000
 41
0.3800
 42
0.8500
 43
1.0000
 50
270.0000
  0
INSERT
  8
31
  2
RECT
 10
21.9513
 20
32.1800
 30
0.0000
 41
0.8500
 42
0.3800
 43
1.0000
 50
270.0000
  0
INSERT
  8
31
  2
RECT
 10
22.4513
 20
32.1800
 30
0.0000
 41
0.8500
 42
0.3800
 43
1.0000
 50
270.0000
  0
INSERT
  8
31
  2
RECT
 10
22.9513
 20
32.1800
 30
0.0000
 41
0.8500
 42
0.3800
 43
1.0000
 50
270.0000
  0
INSERT
  8
31
  2
RECT
 10
23.4513
 20
32.1800
 30
0.0000
 41
0.8500
 42
0.3800
 43
1.0000
 50
270.0000
  0
INSERT
  8
31
  2
RECT
 10
21.2263
 20
34.4050
 30
0.0000
 41
0.3800
 42
0.8500
 43
1.0000
 50
270.0000
  0
INSERT
  8
31
  2
RECT
 10
21.2263
 20
33.9050
 30
0.0000
 41
0.3800
 42
0.8500
 43
1.0000
 50
270.0000
  0
INSERT
  8
31
  2
RECT
 10
21.2263
 20
33.4050
 30
0.0000
 41
0.3800
 42
0.8500
 43
1.0000
 50
270.0000
  0
INSERT
  8
31
  2
RECT
 10
21.2263
 20
32.9050
 30
0.0000
 41
0.3800
 42
0.8500
 43
1.0000
 50
270.0000
  0
INSERT
  8
31
  2
RECT
 10
22.7013
 20
33.6550
 30
0.0000
 41
1.0200
 42
1.0200
 43
1.0000
 50
270.0000
  0
ENDSEC
  0
EOF
